<svg xmlns="http://www.w3.org/2000/svg" xmlns:xlink="http://www.w3.org/1999/xlink" width="60" height="47" viewBox="0 0 60 47"><defs><path id="9x5ia" d="M583.396 689.7c0 6.36-5.043 11.903-12.69 11.903-8.624 0-14.156-7.01-14.156-15.653 0-21.849 14.969-29.186 25.22-30.164v9.946c-6.184.979-13.017 6.033-13.343 13.533.814-.489 1.953-.815 3.417-.815 7.322 0 11.552 4.403 11.552 11.25zm32.054 0c0 6.36-5.044 11.903-12.692 11.903-8.623 0-14.155-7.01-14.155-15.653 0-21.849 14.97-29.186 25.22-30.164v9.946c-6.183.979-13.017 6.033-13.342 13.533.813-.489 1.952-.815 3.416-.815 7.322 0 11.553 4.403 11.553 11.25z"/></defs><g><g transform="translate(-556 -655)"><use fill="#e3e3e3" xlink:href="#9x5ia"/></g></g></svg>